<?xml version="1.0" encoding="utf-8"?>
<!-- Generator: Adobe Illustrator 16.0.0, SVG Export Plug-In . SVG Version: 6.00 Build 0)  -->
<!DOCTYPE svg PUBLIC "-//W3C//DTD SVG 1.1//EN" "http://www.w3.org/Graphics/SVG/1.1/DTD/svg11.dtd">
<svg version="1.1" xmlns="http://www.w3.org/2000/svg" xmlns:xlink="http://www.w3.org/1999/xlink" x="0px" y="0px"
	 width="297.756px" height="286.674px" viewBox="0 0 297.756 286.674" enable-background="new 0 0 297.756 286.674"
	 xml:space="preserve">
<g id="Calque_2_1_">
	<g id="Calque_1_1_" opacity="0.4">
		<g opacity="0.4">
			<path fill="#666666" d="M123.01,40.65C55.071,40.65,0,95.721,0,163.66c0,67.938,55.07,123.014,123.01,123.014
				s123.015-55.073,123.015-123.014C246.025,95.719,190.95,40.65,123.01,40.65z M123.01,260.231
				c-53.266,0-96.569-43.315-96.569-96.571c0-53.257,43.305-96.58,96.569-96.58c53.257,0,96.593,43.322,96.593,96.58
				C219.602,216.916,176.266,260.231,123.01,260.231z"/>
			<path fill="#888888" d="M123.01,78.093c-47.266,0-85.566,38.312-85.566,85.567c0,47.255,38.303,85.565,85.566,85.565
				c47.266,0,85.565-38.313,85.565-85.565C208.576,116.404,170.275,78.093,123.01,78.093z M185.361,190.212
				c-0.074-0.056-0.148-0.158-0.207-0.206l-30.995-20.478c0.338-1.912,0.6-3.861,0.6-5.868s-0.225-3.958-0.6-5.866l30.995-20.481
				c0.075-0.047,0.133-0.151,0.207-0.202c3.47,8.162,5.42,17.13,5.42,26.549C190.781,173.072,188.83,182.047,185.361,190.212z
				 M176.707,122.461c-0.027,0.01-0.085,0.02-0.111,0.028l-33.267,17.004c-2.823-2.382-6.029-4.28-9.564-5.57l-1.923-37.26
				c0-0.047-0.036-0.118-0.036-0.165C150.05,98.89,166.008,108.537,176.707,122.461z M122.991,178.756
				c-8.345,0-15.097-6.762-15.097-15.096c0-8.336,6.752-15.097,15.097-15.097c8.325,0,15.075,6.761,15.075,15.097
				C138.067,171.994,131.317,178.756,122.991,178.756z M114.783,96.424c-0.011,0.075-0.059,0.183-0.065,0.249l-2.223,37.175
				c-3.751,1.327-7.13,3.306-10.09,5.827l-33.317-16.657C69.042,123,68.966,123,68.93,122.971
				C79.74,108.626,96.068,98.697,114.783,96.424z M60.41,137.726c0.039,0.027,0.075,0.098,0.117,0.117l31.27,20.258
				c-0.31,1.806-0.559,3.646-0.559,5.562c0,1.912,0.239,3.75,0.567,5.567l-31.271,20.252c-0.042,0.02-0.089,0.096-0.127,0.123
				c-3.333-7.998-5.185-16.756-5.185-25.942C55.234,154.472,57.085,145.724,60.41,137.726z M68.938,204.36
				c0.037-0.026,0.122-0.026,0.159-0.047l33.318-16.66c2.958,2.541,6.338,4.51,10.088,5.82l2.223,37.188
				c0,0.056,0.059,0.169,0.059,0.234C96.076,228.636,79.748,218.697,68.938,204.36z M131.814,230.812
				c0-0.047,0.037-0.111,0.037-0.148l1.922-37.262c3.525-1.305,6.731-3.188,9.563-5.568l33.269,16.999
				c0.026,0.01,0.074,0.021,0.104,0.026C166.008,218.781,150.05,228.42,131.814,230.812z"/>
		</g>
	</g>
</g>
<g id="Calque_1">
	<g id="Calque_2">
	</g>
	<g>
		<path fill="#FFFFFF" d="M218.446,165.437c0-6.436-5.215-11.651-11.652-11.651v23.304
			C213.231,177.089,218.446,171.874,218.446,165.437z"/>
		<path fill="#FFFFFF" d="M271.642,153.89l-16.286-3.054c-0.991-3.296-2.288-6.455-3.896-9.427l9.424-13.775
			c0.874-1.275,0.69-3.195-0.402-4.284l-11.618-11.622c-1.093-1.092-3.01-1.27-4.279-0.398l-13.784,9.429
			c-3.059-1.652-6.315-2.974-9.713-3.973l-3.037-16.201c-0.286-1.518-1.764-2.747-3.312-2.747h-7.944v39.403
			c15.576,0,28.202,12.627,28.202,28.194c0,15.578-12.631,28.202-28.202,28.202v39.4h7.949c1.551,0,3.022-1.224,3.315-2.741
			l3.039-16.204c3.356-0.991,6.581-2.297,9.612-3.918l13.705,9.377c1.274,0.874,3.191,0.693,4.284-0.404l11.611-11.613
			c1.1-1.096,1.271-3.004,0.406-4.281l-9.326-13.627c1.647-3.03,2.969-6.256,3.979-9.619l16.272-3.051
			c1.512-0.292,2.738-1.77,2.738-3.318v-16.43C274.391,155.656,273.159,154.177,271.642,153.89z"/>
	</g>
	<g>
		<g>
			<polygon fill="#FFFFFF" points="57.45,123.563 169.477,123.563 169.477,233.037 200.99,233.037 200.99,98.362 110.969,57.495 
				25.938,98.362 25.938,233.037 57.45,233.037 			"/>
			<rect x="91.091" y="211.687" fill="#FFFFFF" width="19.878" height="17.147"/>
			<rect x="115.487" y="211.687" fill="#FFFFFF" width="19.878" height="17.147"/>
			<rect x="66.697" y="211.687" fill="#FFFFFF" width="19.877" height="17.147"/>
			<rect x="91.091" y="188.165" fill="#FFFFFF" width="19.878" height="17.148"/>
			<rect x="66.697" y="188.165" fill="#FFFFFF" width="19.877" height="17.148"/>
			<rect x="115.487" y="188.165" fill="#FFFFFF" width="19.878" height="17.148"/>
			<rect x="91.091" y="164.648" fill="#FFFFFF" width="19.878" height="17.147"/>
			<rect x="66.697" y="164.648" fill="#FFFFFF" width="19.877" height="17.147"/>
			<rect x="139.881" y="211.687" fill="#FFFFFF" width="19.877" height="17.147"/>
		</g>
	</g>
</g>
</svg>
