<?xml version="1.0" encoding="utf-8"?>
<!-- Generator: Adobe Illustrator 16.0.0, SVG Export Plug-In . SVG Version: 6.00 Build 0)  -->
<!DOCTYPE svg PUBLIC "-//W3C//DTD SVG 1.1//EN" "http://www.w3.org/Graphics/SVG/1.1/DTD/svg11.dtd">
<svg version="1.1" xmlns="http://www.w3.org/2000/svg" xmlns:xlink="http://www.w3.org/1999/xlink" x="0px" y="0px"
	 width="297.756px" height="286.674px" viewBox="0 0 297.756 286.674" enable-background="new 0 0 297.756 286.674"
	 xml:space="preserve">
<g id="Calque_2_1_">
	<g id="Calque_1_1_" opacity="0.4">
		<g opacity="0.4">
			<path fill="#666666" d="M148.01,40.65C80.071,40.65,25,95.721,25,163.66c0,67.938,55.07,123.014,123.01,123.014
				s123.015-55.073,123.015-123.014C271.025,95.719,215.95,40.65,148.01,40.65z M148.01,260.231
				c-53.266,0-96.569-43.315-96.569-96.571c0-53.257,43.305-96.58,96.569-96.58c53.257,0,96.593,43.322,96.593,96.58
				C244.602,216.916,201.266,260.231,148.01,260.231z"/>
			<path fill="#888888" d="M148.01,78.093c-47.266,0-85.566,38.312-85.566,85.567c0,47.255,38.303,85.565,85.566,85.565
				c47.266,0,85.565-38.313,85.565-85.565C233.576,116.404,195.275,78.093,148.01,78.093z M210.361,190.212
				c-0.074-0.056-0.148-0.158-0.207-0.206l-30.995-20.478c0.338-1.912,0.6-3.861,0.6-5.868s-0.225-3.958-0.6-5.866l30.995-20.481
				c0.075-0.047,0.133-0.151,0.207-0.202c3.47,8.162,5.42,17.13,5.42,26.549C215.781,173.072,213.83,182.047,210.361,190.212z
				 M201.707,122.461c-0.027,0.01-0.085,0.02-0.111,0.028l-33.267,17.004c-2.823-2.382-6.029-4.28-9.564-5.57l-1.923-37.26
				c0-0.047-0.036-0.118-0.036-0.165C175.05,98.89,191.008,108.537,201.707,122.461z M147.991,178.756
				c-8.345,0-15.097-6.762-15.097-15.096c0-8.336,6.752-15.097,15.097-15.097c8.325,0,15.075,6.761,15.075,15.097
				C163.067,171.994,156.317,178.756,147.991,178.756z M139.783,96.424c-0.011,0.075-0.059,0.183-0.065,0.249l-2.223,37.175
				c-3.751,1.327-7.13,3.306-10.09,5.827l-33.317-16.657C94.042,123,93.966,123,93.93,122.971
				C104.74,108.626,121.068,98.697,139.783,96.424z M85.41,137.726c0.039,0.027,0.075,0.098,0.117,0.117l31.27,20.258
				c-0.31,1.806-0.559,3.646-0.559,5.562c0,1.912,0.239,3.75,0.567,5.567l-31.271,20.252c-0.042,0.02-0.089,0.096-0.127,0.123
				c-3.333-7.998-5.185-16.756-5.185-25.942C80.234,154.472,82.085,145.724,85.41,137.726z M93.938,204.36
				c0.037-0.026,0.122-0.026,0.159-0.047l33.318-16.66c2.958,2.541,6.338,4.51,10.088,5.82l2.223,37.188
				c0,0.056,0.059,0.169,0.059,0.234C121.076,228.636,104.748,218.697,93.938,204.36z M156.814,230.812
				c0-0.047,0.037-0.111,0.037-0.148l1.922-37.262c3.525-1.305,6.731-3.188,9.563-5.568l33.269,16.999
				c0.026,0.01,0.074,0.021,0.104,0.026C191.008,218.781,175.05,228.42,156.814,230.812z"/>
		</g>
	</g>
</g>
<g id="Calque_1">
	<g id="Calque_2">
	</g>
	<g>
		<path fill="#FFFFFF" d="M65.26,234.221c0,0-0.136,3.441,3.224,3.441c4.181,0,38.793-0.045,38.793-0.045l0.057-31.789
			c0,0-0.546-5.24,4.54-5.24h16.096c6.015,0,5.644,5.24,5.644,5.24l-0.068,31.686c0,0,32.819,0,37.973,0
			c4.266,0,4.072-4.282,4.072-4.282v-58.604l-53.517-47.605L65.26,174.628V234.221z"/>
		<path fill="#FFFFFF" d="M44.334,170.196c0,0,4.825,8.891,15.344,0l62.87-53.186l58.945,52.857c12.177,8.782,16.739,0,16.739,0
			l-75.685-68.561L44.334,170.196z"/>
		<polygon fill="#FFFFFF" points="180.063,116.884 164.9,116.884 164.963,135.27 180.063,148.08 		"/>
	</g>
	<g>
		<g>
			<g>
				<circle fill="#FFFFFF" cx="167.558" cy="81.42" r="4.167"/>
				<path fill="#FFFFFF" d="M191.114,81.319l-5.552-2.072c-0.147-1.222-0.411-2.415-0.796-3.56l4.163-4.277
					c0.386-0.396,0.439-1.083,0.121-1.534l-3.383-4.806c-0.318-0.452-0.982-0.631-1.483-0.402l-5.434,2.479
					c-0.977-0.769-2.044-1.434-3.18-1.994l-0.078-5.895c-0.009-0.552-0.454-1.076-0.999-1.17l-5.789-1.006
					c-0.545-0.094-1.142,0.248-1.336,0.766l-2.084,5.577c-1.208,0.151-2.387,0.417-3.522,0.8l-4.224-4.112
					c-0.396-0.385-1.084-0.44-1.534-0.121l-4.806,3.383c-0.452,0.319-0.632,0.982-0.403,1.485l2.462,5.397
					c-0.734,0.94-1.376,1.961-1.92,3.047l-5.925,0.078c-0.552,0.008-1.075,0.455-1.169,0.999l-1.006,5.79
					c-0.095,0.545,0.248,1.141,0.764,1.337l5.547,2.071c0.147,1.231,0.413,2.435,0.799,3.589l-4.092,4.204
					c-0.385,0.396-0.439,1.083-0.121,1.533l3.382,4.804c0.318,0.454,0.982,0.631,1.484,0.405l5.336-2.437
					c0.93,0.733,1.939,1.374,3.015,1.919l0.08,5.955c0.008,0.552,0.454,1.074,0.999,1.168l5.791,1.006
					c0.546,0.095,1.14-0.246,1.336-0.763l2.063-5.523c1.242-0.144,2.459-0.407,3.626-0.792l4.255,4.143
					c0.396,0.386,1.083,0.44,1.535,0.12l4.802-3.381c0.454-0.318,0.632-0.98,0.405-1.484l-2.452-5.372
					c0.766-0.967,1.429-2.023,1.99-3.146l5.921-0.079c0.551-0.011,1.073-0.456,1.168-1.001l1.005-5.79
					C191.974,82.11,191.631,81.513,191.114,81.319z M165.831,91.356c-5.486-0.953-9.161-6.173-8.208-11.663
					c0.952-5.485,6.173-9.162,11.659-8.209c5.488,0.953,9.165,6.175,8.212,11.66C176.541,88.634,171.318,92.309,165.831,91.356z"/>
			</g>
		</g>
	</g>
	<g>
		<g>
			<g>
				<circle fill="#FFFFFF" cx="229.612" cy="112.019" r="4.167"/>
				<path fill="#FFFFFF" d="M253.167,111.919l-5.551-2.072c-0.147-1.222-0.411-2.415-0.797-3.56l4.164-4.277
					c0.386-0.396,0.438-1.083,0.12-1.534l-3.383-4.806c-0.317-0.452-0.982-0.631-1.482-0.402l-5.435,2.479
					c-0.977-0.77-2.043-1.435-3.179-1.995l-0.079-5.894c-0.008-0.553-0.453-1.076-0.999-1.171l-5.789-1.005
					c-0.545-0.095-1.142,0.248-1.335,0.765l-2.084,5.578c-1.209,0.151-2.388,0.417-3.522,0.8l-4.225-4.112
					c-0.396-0.385-1.083-0.44-1.534-0.121l-4.806,3.383c-0.452,0.319-0.632,0.983-0.402,1.485l2.462,5.397
					c-0.735,0.94-1.376,1.961-1.921,3.047l-5.925,0.078c-0.552,0.008-1.075,0.455-1.17,0.999l-1.005,5.79
					c-0.095,0.545,0.247,1.141,0.764,1.337l5.548,2.071c0.146,1.231,0.412,2.435,0.799,3.589l-4.092,4.204
					c-0.386,0.396-0.44,1.083-0.121,1.533l3.383,4.804c0.318,0.454,0.982,0.632,1.484,0.406l5.335-2.437
					c0.93,0.733,1.94,1.374,3.016,1.919l0.079,5.955c0.009,0.553,0.455,1.074,1,1.169l5.79,1.006
					c0.547,0.095,1.14-0.246,1.336-0.763l2.063-5.523c1.243-0.144,2.459-0.407,3.626-0.792l4.256,4.143
					c0.396,0.386,1.082,0.439,1.534,0.12l4.802-3.381c0.455-0.318,0.632-0.98,0.405-1.484l-2.452-5.372
					c0.766-0.967,1.429-2.023,1.991-3.146l5.92-0.079c0.551-0.01,1.073-0.456,1.168-1.001l1.006-5.79
					C254.029,112.709,253.685,112.113,253.167,111.919z M227.886,121.956c-5.486-0.953-9.162-6.173-8.209-11.663
					c0.953-5.485,6.174-9.162,11.66-8.209c5.488,0.953,9.164,6.175,8.212,11.66C238.596,119.233,233.372,122.908,227.886,121.956z"
					/>
			</g>
		</g>
	</g>
	<g>
		<g>
			<g>
				<circle fill="#FFFFFF" cx="226.711" cy="176.114" r="4.167"/>
				<path fill="#FFFFFF" d="M250.267,176.014l-5.552-2.072c-0.147-1.222-0.411-2.415-0.796-3.56l4.163-4.277
					c0.386-0.396,0.439-1.084,0.121-1.534l-3.383-4.807c-0.318-0.451-0.982-0.631-1.483-0.402l-5.434,2.479
					c-0.977-0.77-2.044-1.435-3.18-1.995l-0.078-5.894c-0.009-0.553-0.454-1.076-0.999-1.171l-5.79-1.006
					c-0.544-0.095-1.141,0.248-1.335,0.766l-2.084,5.577c-1.208,0.15-2.388,0.417-3.522,0.801l-4.224-4.112
					c-0.396-0.386-1.084-0.44-1.534-0.121l-4.807,3.383c-0.451,0.319-0.631,0.982-0.402,1.485l2.463,5.397
					c-0.735,0.939-1.377,1.961-1.921,3.047l-5.926,0.078c-0.551,0.009-1.075,0.455-1.169,0.999l-1.006,5.79
					c-0.095,0.545,0.248,1.141,0.764,1.337l5.548,2.07c0.147,1.231,0.413,2.435,0.799,3.589l-4.092,4.204
					c-0.385,0.396-0.439,1.082-0.12,1.533l3.382,4.804c0.318,0.454,0.982,0.632,1.484,0.405l5.336-2.437
					c0.929,0.733,1.939,1.374,3.015,1.92l0.08,5.954c0.008,0.553,0.454,1.074,0.999,1.169l5.79,1.006
					c0.547,0.095,1.141-0.246,1.336-0.763l2.063-5.524c1.243-0.144,2.46-0.406,3.627-0.792l4.255,4.143
					c0.396,0.386,1.083,0.439,1.534,0.12l4.802-3.382c0.455-0.318,0.633-0.98,0.406-1.483l-2.452-5.372
					c0.766-0.967,1.429-2.022,1.99-3.146l5.92-0.079c0.551-0.01,1.073-0.455,1.168-1.001l1.006-5.789
					C251.127,176.805,250.784,176.208,250.267,176.014z M224.985,186.051c-5.486-0.953-9.161-6.174-8.208-11.663
					c0.952-5.485,6.173-9.161,11.659-8.209c5.488,0.953,9.165,6.175,8.212,11.66C235.695,183.328,230.471,187.003,224.985,186.051z"
					/>
			</g>
		</g>
	</g>
</g>
</svg>
