<?xml version="1.0" encoding="utf-8"?>
<!-- Generator: Adobe Illustrator 16.0.0, SVG Export Plug-In . SVG Version: 6.00 Build 0)  -->
<!DOCTYPE svg PUBLIC "-//W3C//DTD SVG 1.1//EN" "http://www.w3.org/Graphics/SVG/1.1/DTD/svg11.dtd">
<svg version="1.1" xmlns="http://www.w3.org/2000/svg" xmlns:xlink="http://www.w3.org/1999/xlink" x="0px" y="0px"
	 width="297.756px" height="286.674px" viewBox="0 0 297.756 286.674" enable-background="new 0 0 297.756 286.674"
	 xml:space="preserve">
<g id="Calque_1">
	<g id="Calque_1_1_">
		<g opacity="0.4">
			<path fill="#666666" d="M123.01,40.65C55.071,40.65,0,95.721,0,163.66c0,67.938,55.071,123.014,123.01,123.014
				c67.939,0,123.015-55.073,123.015-123.014S190.95,40.65,123.01,40.65z M123.01,260.231c-53.266,0-96.569-43.315-96.569-96.571
				c0-53.257,43.304-96.58,96.569-96.58c53.257,0,96.593,43.322,96.593,96.58C219.602,216.916,176.266,260.231,123.01,260.231z"/>
			<path fill="#888888" d="M123.01,78.093c-47.266,0-85.566,38.312-85.566,85.567c0,47.255,38.302,85.565,85.566,85.565
				c47.266,0,85.565-38.312,85.565-85.565C208.576,116.404,170.275,78.093,123.01,78.093z M185.361,190.212
				c-0.075-0.056-0.149-0.158-0.207-0.206l-30.996-20.478c0.338-1.912,0.6-3.861,0.6-5.868s-0.225-3.958-0.6-5.866l30.996-20.481
				c0.075-0.047,0.132-0.151,0.207-0.202c3.469,8.162,5.42,17.13,5.42,26.549C190.781,173.072,188.83,182.047,185.361,190.212z
				 M176.707,122.461c-0.027,0.01-0.085,0.02-0.111,0.028l-33.267,17.004c-2.823-2.382-6.029-4.28-9.564-5.57l-1.923-37.26
				c0-0.047-0.036-0.118-0.036-0.165C150.05,98.89,166.008,108.537,176.707,122.461z M122.991,178.756
				c-8.344,0-15.096-6.762-15.096-15.096c0-8.336,6.752-15.097,15.096-15.097c8.326,0,15.076,6.761,15.076,15.097
				C138.067,171.994,131.317,178.756,122.991,178.756z M114.783,96.424c-0.01,0.075-0.058,0.183-0.065,0.249l-2.223,37.175
				c-3.751,1.327-7.13,3.306-10.089,5.827l-33.318-16.657c-0.046-0.018-0.122-0.018-0.158-0.047
				C79.74,108.626,96.068,98.697,114.783,96.424z M60.41,137.726c0.039,0.027,0.076,0.098,0.118,0.117l31.269,20.258
				c-0.309,1.805-0.558,3.646-0.558,5.561c0,1.912,0.239,3.75,0.567,5.568l-31.271,20.252c-0.042,0.019-0.088,0.095-0.127,0.123
				c-3.333-7.998-5.184-16.756-5.184-25.943C55.234,154.472,57.085,145.724,60.41,137.726z M68.938,204.36
				c0.037-0.026,0.122-0.026,0.159-0.047l33.318-16.66c2.958,2.541,6.338,4.51,10.088,5.82l2.223,37.188
				c0,0.056,0.058,0.169,0.058,0.234C96.076,228.636,79.748,218.697,68.938,204.36z M131.814,230.812
				c0-0.047,0.037-0.112,0.037-0.149l1.922-37.261c3.525-1.305,6.731-3.188,9.563-5.569l33.269,16.999
				c0.026,0.01,0.074,0.02,0.103,0.027C166.008,218.781,150.05,228.42,131.814,230.812z"/>
		</g>
	</g>
	<g id="Calque_2">
	</g>
</g>
<g id="Calque_2_1_">
	<g>
		<polygon fill="#141B23" stroke="#141B23" stroke-miterlimit="10" points="21.656,119.065 50.795,119.065 50.795,95.752 
			62.453,95.752 62.453,119.065 91.594,119.065 91.594,84.096 103.25,84.096 56.625,37.471 10,84.096 21.656,84.096 		"/>
	</g>
	<path fill="#141B23" stroke="#141B23" stroke-miterlimit="10" d="M246.925,191.497c-1.258,0-2.501,0.068-3.726,0.188l-9.72-40.479
		c-0.475-1.976-2.245-3.368-4.277-3.368h-15.128c-2.427,0-4.397,1.969-4.397,4.396c0,2.427,1.971,4.396,4.397,4.396h11.664
		l3.289,13.701h-65.569l-3.315-11.924h12.212c2.427,0,4.396-1.971,4.396-4.398c0-2.426-1.969-4.396-4.396-4.396h-17.998
		c-1.375,0-2.668,0.642-3.5,1.737c-0.829,1.094-1.103,2.513-0.735,3.837l5.305,19.089l-17.784,22.509
		c-5.578-3.333-12.071-5.286-19.024-5.286c-20.542-0.002-37.25,16.713-37.25,37.252s16.708,37.247,37.247,37.247
		c19.323,0,35.252-14.794,37.068-33.648h19.224c0.003,0,0.006,0,0.009,0c0.387,0,0.78-0.05,1.169-0.159
		c0.108-0.027,0.206-0.08,0.309-0.119c0.076-0.026,0.146-0.056,0.224-0.086c0.45-0.189,0.854-0.444,1.204-0.755
		c0.023-0.021,0.056-0.03,0.08-0.05l53.76-49.872l2.962,12.328c-14.502,5.101-24.943,18.896-24.943,35.117
		c0,20.539,16.709,37.247,37.249,37.247c20.539,0,37.246-16.708,37.246-37.247C284.175,208.214,267.465,191.497,246.925,191.497z
		 M158.343,184.768l10.781,38.785h-13.662c-1.174-8.339-5.086-15.801-10.84-21.424L158.343,184.768z M139.131,209.079
		c3.764,3.925,6.414,8.914,7.445,14.474h-18.879L139.131,209.079z M118.615,257.204c-15.691,0-28.453-12.766-28.453-28.453
		c0-15.689,12.762-28.458,28.453-28.458c4.898,0,9.509,1.247,13.54,3.433l-16.989,21.501c-1.044,1.322-1.243,3.125-0.507,4.644
		c0.732,1.516,2.269,2.479,3.957,2.479h28.205C145.041,246.341,133.084,257.204,118.615,257.204z M177.211,219.815l-11.309-40.688
		h55.175L177.211,219.815z M246.925,257.204c-15.69,0-28.453-12.763-28.453-28.453c0-12.076,7.574-22.396,18.211-26.52l5.966,24.849
		c0.486,2.017,2.286,3.367,4.273,3.367c0.338,0,0.683-0.041,1.032-0.12c2.359-0.565,3.816-2.942,3.247-5.306l-5.917-24.646
		c0.545-0.033,1.086-0.083,1.641-0.083c15.691,0,28.453,12.767,28.453,28.458C275.378,244.441,262.616,257.204,246.925,257.204z"/>
	<g>
		<path fill="#141B23" stroke="#141B23" stroke-miterlimit="10" d="M200.776,114.557L167.341,110l7.582-7.582
			c-11.802-14.308-29.332-21.849-47.53-12.575c17.62-17.719,42.186-13.176,61.115-1.01l7.711-7.712L200.776,114.557z"/>
	</g>
</g>
</svg>
