<?xml version="1.0" encoding="utf-8"?>
<!-- Generator: Adobe Illustrator 16.0.0, SVG Export Plug-In . SVG Version: 6.00 Build 0)  -->
<!DOCTYPE svg PUBLIC "-//W3C//DTD SVG 1.1//EN" "http://www.w3.org/Graphics/SVG/1.1/DTD/svg11.dtd">
<svg version="1.1" xmlns="http://www.w3.org/2000/svg" xmlns:xlink="http://www.w3.org/1999/xlink" x="0px" y="0px"
	 width="297.755px" height="286.674px" viewBox="0 0 297.755 286.674" style="enable-background:new 0 0 297.755 286.674;"
	 xml:space="preserve">
<g id="Calque_1">
	<g style="opacity:0.4;">
		<path style="fill:#666666;" d="M123.01,40.65C55.071,40.65,0,95.721,0,163.66s55.071,123.014,123.01,123.014
			S246.024,231.6,246.024,163.66S190.95,40.65,123.01,40.65z M123.01,260.232c-53.266,0-96.57-43.316-96.57-96.572
			c0-53.257,43.304-96.58,96.57-96.58c53.256,0,96.592,43.322,96.592,96.58C219.602,216.916,176.266,260.232,123.01,260.232z"/>
		<path style="fill:#888888;" d="M123.01,78.093c-47.266,0-85.567,38.312-85.567,85.567c0,47.255,38.302,85.565,85.567,85.565
			c47.265,0,85.565-38.311,85.565-85.565C208.576,116.404,170.275,78.093,123.01,78.093z M185.361,190.212
			c-0.075-0.056-0.149-0.159-0.207-0.206l-30.996-20.478c0.338-1.912,0.6-3.861,0.6-5.868s-0.225-3.958-0.6-5.866l30.996-20.481
			c0.075-0.047,0.132-0.151,0.207-0.202c3.469,8.162,5.42,17.13,5.42,26.549C190.781,173.072,188.83,182.047,185.361,190.212z
			 M176.707,122.461c-0.028,0.01-0.085,0.02-0.112,0.028l-33.266,17.004c-2.823-2.382-6.029-4.28-9.565-5.57l-1.922-37.26
			c0-0.047-0.037-0.118-0.037-0.165C150.05,98.89,166.008,108.537,176.707,122.461z M122.991,178.756
			c-8.344,0-15.096-6.762-15.096-15.096c0-8.336,6.752-15.096,15.096-15.096c8.326,0,15.076,6.76,15.076,15.096
			C138.067,171.994,131.317,178.756,122.991,178.756z M114.783,96.424c-0.01,0.075-0.058,0.183-0.065,0.249l-2.223,37.175
			c-3.751,1.327-7.13,3.306-10.089,5.827l-33.318-16.657c-0.046-0.018-0.122-0.018-0.159-0.047
			C79.74,108.626,96.068,98.697,114.783,96.424z M60.41,137.726c0.039,0.027,0.076,0.098,0.118,0.117l31.269,20.258
			c-0.309,1.804-0.558,3.646-0.558,5.56c0,1.912,0.239,3.75,0.567,5.568l-31.27,20.253c-0.042,0.018-0.088,0.094-0.127,0.122
			c-3.333-7.998-5.184-16.755-5.184-25.943C55.234,154.471,57.085,145.724,60.41,137.726z M68.938,204.361
			c0.037-0.027,0.122-0.027,0.159-0.047l33.319-16.661c2.958,2.541,6.338,4.51,10.088,5.821l2.222,37.187
			c0,0.056,0.058,0.169,0.058,0.234C96.076,228.636,79.748,218.697,68.938,204.361z M131.814,230.811
			c0-0.047,0.037-0.112,0.037-0.149l1.922-37.261c3.526-1.304,6.732-3.188,9.563-5.569l33.268,16.999
			c0.027,0.01,0.074,0.019,0.103,0.028C166.008,218.781,150.05,228.42,131.814,230.811z"/>
	</g>
	<g>
		<rect x="64.023" y="117.702" style="fill:none;stroke:#141B23;stroke-width:10;stroke-miterlimit:10;" width="84" height="118"/>
		
			<line style="fill:none;stroke:#141B23;stroke-width:10;stroke-miterlimit:10;" x1="91.023" y1="170.702" x2="137.023" y2="170.702"/>
		
			<line style="fill:none;stroke:#141B23;stroke-width:10;stroke-miterlimit:10;" x1="91.023" y1="185.702" x2="137.023" y2="185.702"/>
		
			<line style="fill:none;stroke:#141B23;stroke-width:10;stroke-miterlimit:10;" x1="91.023" y1="216.702" x2="137.023" y2="216.702"/>
		
			<line style="fill:none;stroke:#141B23;stroke-width:10;stroke-miterlimit:10;" x1="91.023" y1="201.702" x2="137.023" y2="201.702"/>
		<rect x="80.023" y="129.702" style="fill:none;stroke:#141B23;stroke-width:10;stroke-miterlimit:10;" width="52" height="28"/>
	</g>
	<polyline style="fill:none;stroke:#141B23;stroke-width:19;stroke-miterlimit:10;" points="156.023,31.202 181.523,116.702 
		291.023,6.702 	"/>
</g>
<g id="Calque_2">
</g>
</svg>
