<?xml version="1.0" encoding="utf-8"?>
<!-- Generator: Adobe Illustrator 16.0.0, SVG Export Plug-In . SVG Version: 6.00 Build 0)  -->
<!DOCTYPE svg PUBLIC "-//W3C//DTD SVG 1.1//EN" "http://www.w3.org/Graphics/SVG/1.1/DTD/svg11.dtd">
<svg version="1.1" id="Calque_1" xmlns="http://www.w3.org/2000/svg" xmlns:xlink="http://www.w3.org/1999/xlink" x="0px" y="0px"
	 width="400px" height="400px" viewBox="0 0 400 400" enable-background="new 0 0 400 400" xml:space="preserve">
<g>
	<g>
		<path fill="#666666" d="M403.317,0.219c-110.707,0-200.443,89.736-200.443,200.441c0,110.703,89.736,200.449,200.441,200.449
			s200.449-89.746,200.449-200.449C603.766,89.955,514.02,0.219,403.317,0.219z M403.317,358.025
			c-86.795,0-157.357-70.586-157.357-157.365S316.522,43.289,403.317,43.289c86.777,0,157.395,70.591,157.395,157.372
			C560.711,287.439,490.094,358.025,403.317,358.025z"/>
		<path opacity="0.75" fill="#666666" d="M171.974,200.66c0-103.441,78.348-188.564,178.942-199.292
			c-7.064-0.753-14.234-1.15-21.5-1.15c-110.705,0-200.442,89.736-200.442,200.441c0,110.703,89.735,200.449,200.442,200.449
			c7.264,0,14.436-0.396,21.5-1.149C250.323,389.23,171.974,304.099,171.974,200.66z"/>
		<path opacity="0.5" fill="#666666" d="M277.448-0.445c7.266,0,14.436,0.396,21.5,1.15C198.355,11.432,119.998,96.555,120,199.996
			c0,103.438,78.355,188.57,178.949,199.3c-7.064,0.753-14.236,1.149-21.501,1.149C166.744,400.445,77,310.699,77,199.996
			C76.998,89.291,166.743-0.445,277.448-0.445z"/>
	</g>
	<path fill="#888888" d="M400.842,61.013c-77.017,0-139.428,62.427-139.428,139.428c0,77.002,62.411,139.428,139.428,139.428
		S540.27,277.443,540.27,200.441C540.27,123.44,477.858,61.013,400.842,61.013z M502.44,243.71c-0.121-0.093-0.244-0.26-0.334-0.337
		l-50.51-33.367c0.549-3.117,0.978-6.296,0.978-9.564c0-3.27-0.367-6.446-0.978-9.557l50.51-33.375
		c0.12-0.076,0.213-0.243,0.334-0.328c5.653,13.299,8.831,27.913,8.831,43.26C511.271,215.779,508.094,230.4,502.44,243.71z
		 M488.34,133.309c-0.047,0.015-0.138,0.031-0.186,0.047l-54.206,27.707c-4.598-3.882-9.821-6.975-15.583-9.076l-3.131-60.715
		c0-0.076-0.063-0.191-0.063-0.267C444.905,94.9,470.906,110.621,488.34,133.309z M400.812,225.039
		c-13.598,0-24.597-11.016-24.597-24.598c0-13.582,10.999-24.598,24.597-24.598c13.566,0,24.567,11.016,24.567,24.598
		C425.379,214.023,414.378,225.039,400.812,225.039z M387.436,90.883c-0.015,0.122-0.092,0.297-0.107,0.404l-3.619,60.578
		c-6.112,2.162-11.62,5.386-16.44,9.495l-54.291-27.141c-0.074-0.031-0.197-0.031-0.26-0.077
		C330.332,110.767,356.939,94.587,387.436,90.883z M298.838,158.183c0.061,0.046,0.122,0.16,0.19,0.191l50.951,33.007
		c-0.505,2.942-0.908,5.943-0.908,9.06c0,3.118,0.39,6.112,0.925,9.075l-50.952,33.002c-0.069,0.03-0.146,0.151-0.206,0.197
		c-5.433-13.031-8.448-27.303-8.448-42.274C290.403,185.47,293.421,171.214,298.838,158.183z M312.733,266.764
		c0.062-0.045,0.198-0.045,0.259-0.076l54.291-27.147c4.821,4.142,10.329,7.351,16.438,9.487l3.622,60.593
		c0,0.093,0.092,0.274,0.092,0.381C356.955,306.318,330.349,290.124,312.733,266.764z M415.188,309.864
		c0-0.078,0.061-0.185,0.061-0.245l3.135-60.717c5.745-2.122,10.97-5.192,15.583-9.075l54.208,27.7
		c0.045,0.016,0.12,0.031,0.167,0.046C470.906,290.262,444.905,305.967,415.188,309.864z"/>
</g>
</svg>
