<?xml version="1.0" encoding="utf-8"?>
<!-- Generator: Adobe Illustrator 16.0.0, SVG Export Plug-In . SVG Version: 6.00 Build 0)  -->
<!DOCTYPE svg PUBLIC "-//W3C//DTD SVG 1.1//EN" "http://www.w3.org/Graphics/SVG/1.1/DTD/svg11.dtd">
<svg version="1.1" id="Calque_1" xmlns="http://www.w3.org/2000/svg" xmlns:xlink="http://www.w3.org/1999/xlink" x="0px" y="0px"
	 width="205.024px" height="205.024px" viewBox="9 20.63 205.024 205.024" enable-background="new 9 20.63 205.024 205.024"
	 xml:space="preserve">
<g id="Calque_1_2_" opacity="0.5">
	<g id="Calque_1_1_">
		<g opacity="0.4">
			<path fill="#666666" d="M111.51,20.63C54.893,20.63,9,66.525,9,123.141s45.893,102.514,102.51,102.514
				c56.619,0,102.514-45.896,102.514-102.514C214.024,66.522,168.128,20.63,111.51,20.63z M111.51,203.619
				c-44.389,0-80.476-36.098-80.476-80.479c0-44.383,36.088-80.485,80.476-80.485c44.381,0,80.496,36.102,80.496,80.485
				C192.005,167.522,155.891,203.619,111.51,203.619z"/>
			<path fill="#888888" d="M111.51,51.833c-39.389,0-71.307,31.927-71.307,71.308c0,39.38,31.92,71.307,71.307,71.307
				c39.389,0,71.306-31.928,71.306-71.307C182.818,83.759,150.899,51.833,111.51,51.833z M163.47,145.268
				c-0.063-0.046-0.124-0.133-0.172-0.171l-25.83-17.066c0.281-1.593,0.5-3.217,0.5-4.89s-0.188-3.299-0.5-4.89l25.83-17.066
				c0.063-0.039,0.109-0.126,0.172-0.169c2.892,6.802,4.517,14.275,4.517,22.125C167.987,130.985,166.362,138.462,163.47,145.268z
				 M156.259,88.808c-0.022,0.008-0.071,0.017-0.094,0.022L128.443,103c-2.354-1.984-5.023-3.565-7.971-4.642l-1.604-31.05
				c0-0.04-0.029-0.1-0.029-0.139C134.044,69.165,147.343,77.204,156.259,88.808z M111.495,135.721
				c-6.954,0-12.581-5.636-12.581-12.58c0-6.946,5.626-12.58,12.581-12.58c6.938,0,12.563,5.634,12.563,12.58
				C124.058,130.085,118.433,135.721,111.495,135.721z M104.655,67.11c-0.009,0.062-0.049,0.152-0.055,0.207l-1.852,30.979
				c-3.126,1.106-5.942,2.755-8.409,4.855L66.574,89.271c-0.039-0.016-0.102-0.016-0.132-0.038
				C75.452,77.279,89.058,69.003,104.655,67.11z M59.343,101.529c0.032,0.021,0.063,0.082,0.098,0.098L85.5,118.508
				c-0.258,1.506-0.466,3.039-0.466,4.636c0,1.594,0.2,3.125,0.473,4.64L59.448,144.66c-0.036,0.016-0.074,0.079-0.106,0.104
				c-2.777-6.665-4.321-13.965-4.321-21.619C55.029,115.484,56.572,108.194,59.343,101.529z M66.449,157.058
				c0.031-0.021,0.102-0.021,0.133-0.038l27.766-13.885c2.465,2.118,5.282,3.759,8.407,4.851l1.852,30.99
				c0,0.048,0.049,0.141,0.049,0.195C89.066,177.289,75.458,169.005,66.449,157.058z M118.847,179.102
				c0-0.039,0.031-0.094,0.031-0.124l1.602-31.053c2.938-1.088,5.609-2.655,7.971-4.64l27.725,14.165
				c0.021,0.008,0.062,0.018,0.086,0.022C147.343,169.075,134.044,177.109,118.847,179.102z"/>
		</g>
	</g>
	<g id="Calque_2">
	</g>
</g>
<g>
	<g>
		<path fill="#FFFFFF" d="M191.949,166.69c0.333,2.56-0.446,4.783-2.337,6.674l-22.189,22.023c-1.002,1.112-2.309,2.059-3.922,2.837
			c-1.613,0.777-3.197,1.279-4.754,1.501c-0.111,0-0.445,0.029-1.003,0.084c-0.556,0.056-1.278,0.085-2.168,0.085
			c-2.114,0-5.534-0.362-10.262-1.086c-4.728-0.723-10.513-2.502-17.353-5.339c-6.842-2.837-14.6-7.091-23.275-12.765
			c-8.677-5.671-17.908-13.458-27.697-23.358c-7.786-7.676-14.237-15.017-19.354-22.023c-5.117-7.008-9.232-13.486-12.347-19.438
			c-3.114-5.951-5.45-11.346-7.008-16.186c-1.557-4.838-2.614-9.01-3.17-12.514s-0.779-6.257-0.667-8.259
			c0.111-2.002,0.167-3.115,0.167-3.337c0.222-1.557,0.723-3.143,1.501-4.755c0.779-1.613,1.724-2.92,2.837-3.921l22.19-22.191
			c1.557-1.557,3.337-2.336,5.339-2.336c1.446,0,2.725,0.417,3.837,1.251c1.112,0.834,2.058,1.863,2.836,3.086l17.853,33.871
			c1.001,1.779,1.279,3.727,0.834,5.839c-0.445,2.114-1.39,3.895-2.836,5.34l-8.176,8.175c-0.222,0.225-0.417,0.586-0.584,1.087
			c-0.167,0.5-0.25,0.917-0.25,1.25c0.445,2.337,1.446,5.007,3.003,8.009c1.335,2.671,3.393,5.924,6.173,9.762
			c2.781,3.838,6.73,8.259,11.846,13.264c5.006,5.117,9.455,9.094,13.348,11.931c3.894,2.836,7.147,4.923,9.761,6.257
			c2.614,1.336,4.616,2.142,6.006,2.419l2.086,0.417c0.222,0,0.584-0.084,1.084-0.25c0.5-0.167,0.861-0.36,1.084-0.584l9.51-9.678
			c2.003-1.779,4.338-2.669,7.008-2.669c1.893,0,3.393,0.334,4.505,1.001h0.167l32.2,19.021
			C190.113,162.631,191.502,164.465,191.949,166.69z"/>
	</g>
</g>
</svg>
